<svg width="1500" height="1400" viewBox="0 0 1500 1400" fill="none" xmlns="http://www.w3.org/2000/svg">
<g clip-path="url(#clip0_1643_1247)">
<path d="M86.0074 724L746.894 32.1796L1398.53 724H86.0074Z" stroke="#E2E8F0" stroke-width="3"/>
<path d="M1052.07 555.467C1013.6 571.471 1019.34 623.129 1020.21 658.325C1033.54 631.4 1113.51 707.734 1164.75 704.792C1185.3 703.612 1214.56 694.683 1214.56 694.683L1196.46 662.893L1225.77 692.367C1246.04 694.536 1273.44 682.761 1301.12 671.324C1325.7 661.165 1345.3 640.578 1360.11 638.981C1335.95 630.135 1241.06 574.616 1241.06 574.616L1202.43 593.541L1215.19 567.761C1192.83 559.961 1164.4 554.523 1135.66 558.437C1117.78 560.872 1103.25 572.179 1093.28 572.013L1102.35 553.681C1095.85 552.014 1068.85 548.49 1052.07 555.467Z" fill="#E2E8F0"/>
<path d="M890.425 398.764C907.099 461.439 974.54 498.41 1020.17 527.463C986.73 487.431 1093.88 451.087 1095.45 383.366C1096.07 356.197 1087.59 311.312 1087.59 311.312L1044.56 307.107L1085.77 295.067C1090.7 271.138 1078.34 226.174 1066.44 181.154C1055.87 141.167 1031.29 98.5896 1030.78 78.3714C1016.8 101.528 935.014 174.695 935.014 174.695L955.45 240.072L923.432 201.744C910.996 223.508 900.98 255.019 903.03 294.946C904.307 319.793 917.414 347.963 916.153 360.517L893.384 333.262C890.547 340.095 883.156 371.442 890.425 398.764Z" fill="#E2E8F0"/>
<path d="M985.495 408.452C957.078 459.188 1003.71 543.95 1026.02 595.892C1052.17 566.827 1139.23 592.95 1188.26 552.814C1207.94 536.713 1231.52 502.97 1231.52 502.97L1194.19 468.134L1241.23 491.694C1262.66 480.797 1282.67 444.098 1303.16 407.714C1321.35 375.398 1328.25 330.99 1341.97 318.272C1312.61 321.915 1184.65 305.213 1184.65 305.213L1157.85 360.418L1154.8 313.027C1127.87 316.976 1096.36 328.686 1070.23 354.579C1053.97 370.692 1046.45 397.705 1036.45 404.417L1034.28 370.716C1026.82 372.757 997.882 386.336 985.495 408.452Z" fill="#CBD5E0"/>
<path d="M421.201 533.776H397.959C394.993 520.879 389.958 508.741 383.268 497.706L400.235 480.602C402.717 478.119 402.717 474.05 400.235 471.567L369.268 440.738C366.785 438.255 362.716 438.255 360.233 440.738L343.75 457.36C332.577 450.256 320.163 444.945 306.921 441.704V417.772C306.921 414.254 304.093 411.427 300.576 411.427H256.919C253.402 411.427 250.574 414.254 250.574 417.772V441.221C236.78 444.325 223.814 449.773 212.159 457.084L195.537 440.531C193.055 438.048 188.985 438.048 186.503 440.531L155.812 471.36C153.329 473.843 153.329 477.912 155.812 480.395L172.502 497.016C165.605 508.189 160.502 520.534 157.467 533.638H133.466C129.949 533.638 127.121 536.466 127.121 539.983V583.64C127.121 587.157 129.949 589.985 133.466 589.985H157.536C160.64 603.227 165.881 615.572 172.847 626.745L156.088 643.642C153.605 646.125 153.605 650.194 156.088 652.677L187.054 683.506C189.537 685.989 193.606 685.989 196.089 683.506L212.848 666.678C223.883 673.505 236.022 678.609 249.057 681.713V705.645C249.057 709.162 251.884 711.99 255.402 711.99H299.058C302.576 711.99 305.404 709.162 305.404 705.645V681.92C318.783 678.816 331.404 673.574 342.715 666.54L359.543 683.299C362.026 685.782 366.095 685.782 368.578 683.299L399.407 652.332C401.89 649.849 401.89 645.78 399.407 643.297L382.648 626.607C389.545 615.503 394.717 603.158 397.821 590.054H421.201C424.718 590.054 427.546 587.226 427.546 583.709V540.052C427.546 536.604 424.718 533.776 421.201 533.776Z" fill="#EDF2F7"/>
<path d="M277.258 622.681C310.892 622.681 338.157 595.416 338.157 561.783C338.157 528.149 310.892 500.884 277.258 500.884C243.625 500.884 216.359 528.149 216.359 561.783C216.359 595.416 243.625 622.681 277.258 622.681Z" fill="white"/>
<path d="M458.165 432.359H443.353C441.463 424.14 438.254 416.404 433.991 409.372L444.803 398.471C446.386 396.889 446.386 394.296 444.803 392.714L425.069 373.067C423.486 371.484 420.893 371.484 419.311 373.067L408.806 383.659C401.686 379.132 393.774 375.748 385.335 373.682V358.43C385.335 356.189 383.533 354.387 381.291 354.387H353.469C351.228 354.387 349.426 356.189 349.426 358.43V373.374C340.635 375.352 332.372 378.825 324.944 383.484L314.351 372.935C312.769 371.353 310.176 371.353 308.593 372.935L289.034 392.582C287.452 394.164 287.452 396.757 289.034 398.34L299.671 408.932C295.276 416.053 292.023 423.92 290.089 432.271H274.794C272.552 432.271 270.75 434.073 270.75 436.315V464.137C270.75 466.379 272.552 468.181 274.794 468.181H290.133C292.111 476.62 295.451 484.487 299.891 491.608L289.21 502.376C287.628 503.958 287.628 506.552 289.21 508.134L308.945 527.781C310.527 529.363 313.121 529.363 314.703 527.781L325.383 517.056C332.416 521.408 340.152 524.66 348.459 526.638V541.89C348.459 544.131 350.261 545.933 352.502 545.933H380.324C382.566 545.933 384.368 544.131 384.368 541.89V526.77C392.895 524.792 400.938 521.452 408.147 516.968L418.871 527.649C420.453 529.231 423.047 529.231 424.629 527.649L444.276 507.914C445.858 506.332 445.858 503.739 444.276 502.156L433.595 491.52C437.991 484.443 441.287 476.576 443.265 468.225H458.165C460.407 468.225 462.209 466.423 462.209 464.181V436.359C462.209 434.161 460.407 432.359 458.165 432.359Z" fill="#E2E8F0"/>
<path d="M366.431 489.018C387.866 489.018 405.242 471.642 405.242 450.208C405.242 428.773 387.866 411.397 366.431 411.397C344.997 411.397 327.621 428.773 327.621 450.208C327.621 471.642 344.997 489.018 366.431 489.018Z" fill="white"/>
<path d="M333.062 1167.36L583.397 735.078H82.727L333.062 1167.36Z" fill="#E2E8F0"/>
<path d="M1143.49 1209.28L1415 735.737H871.976L1143.49 1209.28Z" fill="#E2E8F0"/>
<path d="M739.133 1370.23L1105.56 735.556H372.706L739.133 1370.23Z" fill="#EDF2F7"/>
<path d="M1063.51 634.198H413.996C408.473 634.198 403.996 638.675 403.996 644.198V1034.91C403.996 1040.43 408.473 1044.91 413.996 1044.91H1063.51C1069.03 1044.91 1073.51 1040.43 1073.51 1034.91V644.198C1073.51 638.675 1069.03 634.198 1063.51 634.198Z" fill="#4A5568"/>
<path d="M1050 646H429C423.477 646 419 650.477 419 656V1017C419 1022.52 423.477 1027 429 1027H1050C1055.52 1027 1060 1022.52 1060 1017V656C1060 650.477 1055.52 646 1050 646Z" fill="#EDF2F7"/>
<path d="M1117.94 301H361.891C355.581 301 350.849 306.772 352.085 312.959L410.289 604.275C411.223 608.95 415.328 612.315 420.096 612.315H1058.86C1063.61 612.315 1067.71 608.965 1068.66 604.303L1127.74 312.988C1129 306.792 1124.26 301 1117.94 301Z" fill="#4A5568"/>
<path d="M382.828 321.008H1099.23L1043.9 596.691H436.277L382.828 321.008Z" fill="white"/>
<path d="M446 362H1026L981.209 555H489.272L446 362Z" fill="#CBD5E0"/>
<path d="M489.028 400.377C487.487 394.077 492.257 388 498.742 388H816.172C822.985 388 827.803 394.663 825.669 401.132L816.765 428.132C815.413 432.231 811.584 435 807.268 435H505.348C500.741 435 496.73 431.852 495.635 427.377L489.028 400.377Z" fill="#D62F2F"/>
<path d="M498.835 470.567C497.872 464.495 502.564 459 508.712 459H802.576C808.96 459 813.709 464.901 812.344 471.137L802.499 516.137C801.494 520.728 797.429 524 792.73 524H515.851C510.933 524 506.745 520.424 505.975 515.567L498.835 470.567Z" fill="#EDF2F7"/>
<path d="M846.713 395.754C847.759 391.215 851.8 388 856.457 388H981.659C988.016 388 992.76 393.854 991.442 400.073L967.18 514.573C966.2 519.194 962.121 522.5 957.397 522.5H830.067C823.637 522.5 818.878 516.52 820.322 510.254L846.713 395.754Z" fill="#F7FAFC"/>
<rect x="457" y="690" width="569" height="200" fill="#718096"/>
<rect x="662" y="918.008" width="156.283" height="91.2692" fill="#A0AEC0"/>
<rect x="497.539" y="612.316" width="480.726" height="21.8796" fill="#2D3748"/>
<rect x="474" y="709.227" width="25.6764" height="25.5466" fill="#A0AEC0"/>
<rect x="651.289" y="709.227" width="25.6764" height="25.5466" fill="#A0AEC0"/>
<rect x="827.355" y="709.227" width="25.6764" height="25.5466" fill="#A0AEC0"/>
<rect x="509.457" y="709.227" width="25.6764" height="25.5466" fill="#A0AEC0"/>
<rect x="685.523" y="709.227" width="26.8991" height="25.5466" fill="#A0AEC0"/>
<rect x="862.812" y="709.227" width="25.6764" height="25.5466" fill="#A0AEC0"/>
<rect x="544.918" y="709.227" width="25.6764" height="25.5466" fill="#A0AEC0"/>
<rect x="720.98" y="709.227" width="26.8991" height="25.5466" fill="#A0AEC0"/>
<rect x="898.273" y="709.227" width="25.6764" height="25.5466" fill="#A0AEC0"/>
<rect x="615.832" y="709.227" width="25.6764" height="25.5466" fill="#A0AEC0"/>
<rect x="791.898" y="709.227" width="25.6764" height="25.5466" fill="#A0AEC0"/>
<rect x="580.375" y="709.227" width="25.6764" height="25.5466" fill="#A0AEC0"/>
<rect x="756.441" y="709.227" width="25.6764" height="25.5466" fill="#A0AEC0"/>
<rect x="934.137" y="709" width="76.8647" height="26" fill="#A0AEC0"/>
<rect x="474" y="743.227" width="25.6764" height="25.5466" fill="#A0AEC0"/>
<rect x="651.289" y="743.227" width="25.6764" height="25.5466" fill="#A0AEC0"/>
<rect x="827.355" y="743.227" width="25.6764" height="25.5466" fill="#A0AEC0"/>
<rect x="509.457" y="743.227" width="25.6764" height="25.5466" fill="#A0AEC0"/>
<rect x="685.523" y="743.227" width="26.8991" height="25.5466" fill="#A0AEC0"/>
<rect x="862.812" y="743.227" width="25.6764" height="25.5466" fill="#A0AEC0"/>
<rect x="544.918" y="743.227" width="25.6764" height="25.5466" fill="#A0AEC0"/>
<rect x="720.98" y="743.227" width="26.8991" height="25.5466" fill="#A0AEC0"/>
<rect x="898.273" y="743.227" width="25.6764" height="25.5466" fill="#A0AEC0"/>
<rect x="931" y="743" width="25.6764" height="25.5466" fill="#A0AEC0"/>
<rect x="615.832" y="743.227" width="25.6764" height="25.5466" fill="#A0AEC0"/>
<rect x="791.898" y="743.227" width="25.6764" height="25.5466" fill="#A0AEC0"/>
<rect x="580.375" y="743.227" width="25.6764" height="25.5466" fill="#A0AEC0"/>
<rect x="756.441" y="743.227" width="25.6764" height="25.5466" fill="#A0AEC0"/>
<rect x="965" y="743" width="46" height="26" fill="#A0AEC0"/>
<rect x="473" y="776.227" width="25.6764" height="25.5466" fill="#A0AEC0"/>
<rect x="650.289" y="776.227" width="25.6764" height="25.5466" fill="#A0AEC0"/>
<rect x="826.355" y="776.227" width="25.6764" height="25.5466" fill="#A0AEC0"/>
<rect x="508.457" y="776.227" width="25.6764" height="25.5466" fill="#A0AEC0"/>
<rect x="684.523" y="776.227" width="26.8991" height="25.5466" fill="#A0AEC0"/>
<rect x="861.812" y="776.227" width="25.6764" height="25.5466" fill="#A0AEC0"/>
<rect x="543.918" y="776.227" width="25.6764" height="25.5466" fill="#A0AEC0"/>
<rect x="719.98" y="776.227" width="26.8991" height="25.5466" fill="#A0AEC0"/>
<rect x="897.273" y="776.227" width="25.6764" height="25.5466" fill="#A0AEC0"/>
<rect x="614.832" y="776.227" width="25.6764" height="25.5466" fill="#A0AEC0"/>
<rect x="790.898" y="776.227" width="25.6764" height="25.5466" fill="#A0AEC0"/>
<rect x="579.375" y="776.227" width="25.6764" height="25.5466" fill="#A0AEC0"/>
<rect x="755.441" y="776.227" width="25.6764" height="25.5466" fill="#A0AEC0"/>
<rect x="933.137" y="776" width="76.8647" height="26" fill="#A0AEC0"/>
<rect x="474" y="810.227" width="25.6764" height="25.5466" fill="#A0AEC0"/>
<rect x="651.289" y="810.227" width="25.6764" height="25.5466" fill="#A0AEC0"/>
<rect x="827.355" y="810.227" width="25.6764" height="25.5466" fill="#A0AEC0"/>
<rect x="509.457" y="810.227" width="25.6764" height="25.5466" fill="#A0AEC0"/>
<rect x="685.523" y="810.227" width="26.8991" height="25.5466" fill="#A0AEC0"/>
<rect x="862.812" y="810.227" width="25.6764" height="25.5466" fill="#A0AEC0"/>
<rect x="544.918" y="810.227" width="25.6764" height="25.5466" fill="#A0AEC0"/>
<rect x="720.98" y="810.227" width="26.8991" height="25.5466" fill="#A0AEC0"/>
<rect x="898.273" y="810.227" width="25.6764" height="25.5466" fill="#A0AEC0"/>
<rect x="615.832" y="810.227" width="25.6764" height="25.5466" fill="#A0AEC0"/>
<rect x="791.898" y="810.227" width="25.6764" height="25.5466" fill="#A0AEC0"/>
<rect x="580.375" y="810.227" width="25.6764" height="25.5466" fill="#A0AEC0"/>
<rect x="756.441" y="810.227" width="25.6764" height="25.5466" fill="#A0AEC0"/>
<rect x="934" y="810" width="77" height="26" fill="#A0AEC0"/>
<rect x="473" y="844.227" width="25.6764" height="25.5466" fill="#A0AEC0"/>
<rect x="826.355" y="844.227" width="25.6764" height="25.5466" fill="#A0AEC0"/>
<rect x="508.457" y="844.227" width="25.6764" height="25.5466" fill="#A0AEC0"/>
<rect x="861.812" y="844.227" width="25.6764" height="25.5466" fill="#A0AEC0"/>
<rect x="543.918" y="844.227" width="25.6764" height="25.5466" fill="#A0AEC0"/>
<rect x="897.273" y="844.227" width="25.6764" height="25.5466" fill="#A0AEC0"/>
<rect x="934" y="845" width="23" height="26" fill="#A0AEC0"/>
<rect x="990" y="845" width="22" height="26" fill="#A0AEC0"/>
<rect x="960" y="845" width="26" height="11" fill="#A0AEC0"/>
<rect x="960" y="860" width="26" height="11" fill="#A0AEC0"/>
<rect x="614.832" y="844.227" width="25.6764" height="25.5466" fill="#A0AEC0"/>
<rect x="790.898" y="844.227" width="25.6764" height="25.5466" fill="#A0AEC0"/>
<rect x="579.375" y="844.227" width="25.6764" height="25.5466" fill="#A0AEC0"/>
<rect x="652" y="844" width="129" height="26" fill="#A0AEC0"/>
<circle cx="259.918" cy="887.035" r="102" transform="rotate(138.13 259.918 887.035)" fill="#D62F2F"/>
<circle cx="259.92" cy="887.035" r="83" transform="rotate(138.13 259.92 887.035)" fill="#2D3748"/>
<path d="M246.603 933.311C243.528 943.45 249.34 954.462 259.934 954.57C266.769 954.64 273.612 953.672 280.224 951.666C292.999 947.789 304.338 940.211 312.807 929.891C321.275 919.57 326.493 906.97 327.8 893.684C329.108 880.398 326.446 867.023 320.152 855.249C313.857 843.476 304.213 833.834 292.439 827.541C280.665 821.249 267.289 818.59 254.003 819.899C240.717 821.209 228.118 826.429 217.799 834.899C212.458 839.283 207.852 844.436 204.113 850.159C198.319 859.029 204.249 869.978 214.388 873.052L216.324 873.639C225.393 876.39 234.816 870.568 242.141 864.555C246.595 860.9 252.033 858.647 257.767 858.082C263.501 857.516 269.274 858.664 274.356 861.38C279.437 864.096 283.6 868.257 286.316 873.339C289.033 878.42 290.182 884.193 289.617 889.927C289.053 895.661 286.801 901.099 283.146 905.553C279.491 910.008 274.598 913.278 269.084 914.951C260.015 917.703 249.941 922.305 247.19 931.375L246.603 933.311Z" fill="#718096"/>
<path d="M196.062 948.229L152.441 979.223C143.667 985.457 131.5 983.398 125.265 974.623C119.031 965.849 121.09 953.682 129.865 947.447L173.486 916.454L196.062 948.229Z" fill="#D62F2F"/>
<circle cx="219.94" cy="926.649" r="13.5" transform="rotate(138.13 219.94 926.649)" fill="#718096"/>
<circle cx="220.51" cy="896.607" r="7.46154" transform="rotate(138.13 220.51 896.607)" fill="#718096"/>
<path d="M959.043 459.724C958.884 470.332 953.152 479.954 943.814 486.915C934.474 493.878 921.588 498.121 907.367 497.908C893.146 497.695 880.393 493.068 871.266 485.828C862.141 478.59 856.7 468.801 856.859 458.193C857.018 447.585 862.75 437.964 872.088 431.002C881.427 424.039 894.314 419.796 908.535 420.01C922.755 420.223 935.509 424.85 944.636 432.089C953.761 439.328 959.202 449.117 959.043 459.724Z" fill="#F7FAFC" stroke="#A0AEC0" stroke-width="3"/>
<path d="M908.268 438.305C922.67 438.521 935.622 441.112 944.912 445.086C954.283 449.095 959.573 454.337 959.493 459.73C959.412 465.122 953.967 470.203 944.479 473.93C935.075 477.624 922.051 479.826 907.649 479.61C893.246 479.394 880.295 476.803 871.005 472.829C861.634 468.82 856.343 463.578 856.424 458.185C856.505 452.793 861.95 447.712 871.437 443.985C880.842 440.291 893.865 438.089 908.268 438.305Z" stroke="#A0AEC0" stroke-width="2"/>
<path d="M934.95 459.363C934.785 470.394 931.533 480.289 926.465 487.368C921.385 494.465 914.597 498.596 907.366 498.487C900.136 498.379 893.475 494.047 888.609 486.801C883.756 479.573 880.802 469.585 880.967 458.554C881.133 447.523 884.384 437.628 889.452 430.548C894.533 423.451 901.32 419.321 908.551 419.429C915.782 419.538 922.443 423.87 927.308 431.115C932.161 438.344 935.115 448.332 934.95 459.363Z" stroke="#A0AEC0" stroke-width="2"/>
<path d="M908.516 421.206L907.364 498.059" stroke="#A0AEC0" stroke-width="3"/>
<path d="M958.793 459.721L858.868 458.223" stroke="#A0AEC0" stroke-width="3"/>
<rect x="1236.7" y="660.274" width="227.758" height="287.213" transform="rotate(21.1571 1236.7 660.274)" fill="#CBD5E0"/>
<rect x="1232.05" y="646.746" width="222.251" height="283.261" transform="rotate(21.1571 1232.05 646.746)" fill="#EDF2F7"/>
<rect x="1319.09" y="875.969" width="17.3913" height="165.332" transform="rotate(-20.9297 1319.09 875.969)" fill="#D62F2F"/>
<path d="M1378.15 1030.39L1394.39 1024.18L1399.13 1036.58C1400.85 1041.06 1398.6 1046.09 1394.12 1047.8V1047.8C1389.63 1049.52 1384.6 1047.27 1382.89 1042.79L1378.15 1030.39Z" fill="#718096"/>
<rect x="1376.5" y="1026.07" width="17.3913" height="8.09316" transform="rotate(-20.9297 1376.5 1026.07)" fill="#F7FAFC"/>
<path d="M1318.63 848.912L1335.23 869.488L1318.98 875.7L1318.63 848.912Z" fill="#F7FAFC"/>
<path d="M1318.63 848.912L1324.27 856.041L1321.48 857.108L1318.68 858.176L1318.63 848.912Z" fill="#D62F2F"/>
<path d="M1241.3 701.2L1302.96 725.312L1364.63 749.424M1232.98 723.635L1320.2 758.615" stroke="#D62F2F" stroke-width="6"/>
<path d="M1225.85 743.554L1300.73 774.415M1331.08 762.058L1381.87 782.726" stroke="#D62F2F" stroke-width="6"/>
<path d="M1144 1041C1144 1013.39 1166.39 991 1194 991H1197.81C1225.43 991 1247.81 1013.39 1247.81 1041V1118C1247.81 1140.09 1229.9 1158 1207.81 1158H1184C1161.91 1158 1144 1140.09 1144 1118V1041Z" fill="#D62F2F"/>
<rect x="1193.65" y="991" width="2.70811" height="27.9838" fill="#2D3748"/>
<rect x="1193.65" y="1031.62" width="2.70811" height="27.9838" fill="#2D3748"/>
<rect x="1190.04" y="1014.47" width="9.92973" height="28.8865" rx="4.96487" fill="#E2E8F0"/>
<path d="M1227.66 821.108L1206.91 793.065L1241.27 787.049" stroke="#D62F2F" stroke-width="6" stroke-linecap="round"/>
<path d="M1263.22 835.623L1296.89 830.018L1276.94 801.304" stroke="#D62F2F" stroke-width="6" stroke-linecap="round"/>
<path d="M1266.04 795.825L1237.93 825.515" stroke="#D62F2F" stroke-width="6" stroke-linecap="round"/>
</g>
<defs>
<clipPath id="clip0_1643_1247">
<rect width="1500" height="1400" fill="white"/>
</clipPath>
</defs>
</svg>
